<?xml version="1.0" encoding="UTF-8"?>
<svg version="1.1" xmlns="http://www.w3.org/2000/svg" width="3000" height="2000">
<path d="M0 0 C270.93 0 541.86 0 821 0 C821 79.86 821 159.72 821 242 C642.8 242 464.6 242 281 242 C281 292.49 281 342.98 281 395 C459.2 395 637.4 395 821 395 C821 469.25 821 543.5 821 620 C643.13 620 465.26 620 282 620 C281.67 672.8 281.34 725.6 281 780 C459.2 780 637.4 780 821 780 C821 859.86 821 939.72 821 1022 C550.07 1022 279.14 1022 0 1022 C0 684.74 0 347.48 0 0 Z " fill="#14477A" transform="translate(205,411)"/>
<path d="M0 0 C336.93 0 673.86 0 1021 0 C1021 82.5 1021 165 1021 250 C920.35 250 819.7 250 716 250 C716.01160156 292.48621094 716.02320312 334.97242188 716.03515625 378.74609375 C716.03995839 403.99078181 716.04469267 429.23546951 716.04816496 454.48015773 C716.05020619 469.28313775 716.05229412 484.08611777 716.05452599 498.88909776 C716.05479583 500.67965287 716.05506421 502.47020799 716.05533109 504.2607631 C716.0595986 532.81028332 716.06710288 561.35980155 716.07629722 589.90932057 C716.08572895 619.24923502 716.09188525 648.58914838 716.09391499 677.92906432 C716.09420315 682.07228314 716.09452879 686.21550196 716.09487724 690.35872078 C716.09494467 691.17417276 716.09501209 691.98962473 716.09508156 692.82978737 C716.09626368 705.96097466 716.10090283 719.09215857 716.10683203 732.22334448 C716.11271792 745.42178516 716.11496831 758.62022248 716.11350138 771.81866442 C716.1127403 779.66189955 716.11477305 787.50512239 716.12079754 795.3483553 C716.12498758 801.20287535 716.123962 807.0573869 716.12089889 812.91190792 C716.12047547 815.28217383 716.12175186 817.65244077 716.12488318 820.02270465 C716.12888858 823.24126382 716.12673747 826.45976267 716.12304783 829.67832088 C716.12567484 830.60124157 716.12830186 831.52416226 716.13100848 832.47505024 C716.11651706 838.05897629 715.70753958 843.45980473 715 849 C714.34 849 713.68 849 713 849 C712.93941406 849.73605469 712.87882812 850.47210937 712.81640625 851.23046875 C712.73261719 852.20628906 712.64882812 853.18210937 712.5625 854.1875 C712.48128906 855.15042969 712.40007813 856.11335938 712.31640625 857.10546875 C712.02333849 859.78649602 711.57296246 862.3662986 711 865 C710.34 865 709.68 865 709 865 C708.87625 866.010625 708.7525 867.02125 708.625 868.0625 C708.01914665 871.87937612 707.12806088 875.31500112 706 879 C705.34 879 704.68 879 704 879 C703.86722656 879.62648438 703.73445313 880.25296875 703.59765625 880.8984375 C703.42105469 881.71570312 703.24445312 882.53296875 703.0625 883.375 C702.88847656 884.18710938 702.71445313 884.99921875 702.53515625 885.8359375 C702 888 702 888 701 890 C700.34 890 699.68 890 699 890 C698.93554688 890.65742187 698.87109375 891.31484375 698.8046875 891.9921875 C697.67603119 896.21095136 695.47250968 899.47405718 693.125 903.125 C692.67769531 903.84042969 692.23039062 904.55585937 691.76953125 905.29296875 C689.71129363 908.54121987 687.73212139 911.28869838 685 914 C684.67 914.66 684.34 915.32 684 916 C682.92885487 918.14229025 681.71723677 919.35431476 680 921 C679.34 921.99 678.68 922.98 678 924 C677.34 924 676.68 924 676 924 C675.773125 924.515625 675.54625 925.03125 675.3125 925.5625 C671.60587431 932.44623343 666.98568496 937.09620702 661 942 C656.99222479 945.26534304 656.99222479 945.26534304 653.2421875 948.81640625 C650.45237183 951.53331733 647.460585 953.88071152 644.375 956.25 C643.78976562 956.70890625 643.20453125 957.1678125 642.6015625 957.640625 C638.24237351 961 638.24237351 961 636 961 C636 961.66 636 962.32 636 963 C635.071875 963.433125 634.14375 963.86625 633.1875 964.3125 C630.3879868 965.79459522 629.14175947 966.83655182 627 969 C622.93740164 971.94070927 619.10320328 974.52157469 614 975 C614 975.66 614 976.32 614 977 C611.3773768 978.33819498 608.75213401 979.6707151 606.125 981 C605.00544922 981.57234375 605.00544922 981.57234375 603.86328125 982.15625 C602.79013672 982.69765625 602.79013672 982.69765625 601.6953125 983.25 C601.03547363 983.58515625 600.37563477 983.9203125 599.69580078 984.265625 C598 985 598 985 596 985 C596 985.66 596 986.32 596 987 C580.64974619 994 580.64974619 994 576 994 C576 994.66 576 995.32 576 996 C574.39743892 996.50512244 572.79288208 997.00391627 571.1875 997.5 C569.84751953 997.91765625 569.84751953 997.91765625 568.48046875 998.34375 C566 999 566 999 563 999 C563 999.66 563 1000.32 563 1001 C562.05898437 1001.26554687 561.11796875 1001.53109375 560.1484375 1001.8046875 C558.90320312 1002.15789063 557.65796875 1002.51109375 556.375 1002.875 C555.14523437 1003.22304687 553.91546875 1003.57109375 552.6484375 1003.9296875 C550.35498923 1004.60249781 548.07321119 1005.31801577 545.8125 1006.09375 C542.1808096 1007.26396135 538.78806638 1007.60813106 535 1008 C535 1008.66 535 1009.32 535 1010 C532.43850372 1010.50567729 529.87600535 1011.00470132 527.3125 1011.5 C526.2306543 1011.71462891 526.2306543 1011.71462891 525.12695312 1011.93359375 C521.36158641 1012.65571887 517.85526187 1013.1824976 514 1013 C514 1013.66 514 1014.32 514 1015 C513.13197754 1015.11593506 512.26395508 1015.23187012 511.36962891 1015.35131836 C508.15260293 1015.78271288 504.93602836 1016.21729443 501.71972656 1016.65405273 C500.32699585 1016.84250965 498.93409195 1017.02969122 497.54101562 1017.21557617 C495.5399146 1017.48281723 493.53947683 1017.75501012 491.5390625 1018.02734375 C490.33459473 1018.18968506 489.13012695 1018.35202637 487.88916016 1018.51928711 C485.06898739 1018.84286139 485.06898739 1018.84286139 483 1020 C478.80745853 1020.5154903 474.58759151 1020.75967793 470.375 1021.0625 C469.24964844 1021.15337891 468.12429688 1021.24425781 466.96484375 1021.33789062 C454.90122221 1022.21656624 443.20730071 1022 431 1022 C431 767.24 431 512.48 431 250 C288.77 250 146.54 250 0 250 C0 167.5 0 85 0 0 Z " fill="#14477A" transform="translate(1774,411)"/>
<path d="M0 0 C24.53879789 -0.16348354 49.07751422 -0.28694258 73.6167469 -0.3626852 C85.01063358 -0.39878784 96.40418199 -0.448013 107.79785156 -0.52807617 C117.72798349 -0.59782185 127.65787045 -0.64300178 137.5882405 -0.65861946 C142.84699885 -0.66774964 148.1050564 -0.68922287 153.36359024 -0.7401104 C158.31314824 -0.78761992 163.26171674 -0.80228173 168.21148109 -0.79175377 C170.02798019 -0.79367975 171.84451233 -0.80760749 173.66081429 -0.83443832 C187.42587056 -1.02780673 187.42587056 -1.02780673 191.36674118 1.54533195 C192.88613182 3.30345178 193.92899912 4.9501886 195 7 C196.23626929 8.12261601 197.49930944 9.21841916 198.8125 10.25 C201.36773396 12.25808673 201.92587492 12.77762476 203 16 C205.15181824 18.27477928 207.39792658 20.42619294 209.6640625 22.5859375 C211.1433346 24.02314499 212.57512175 25.50884834 214 27 C214 27.66 214 28.32 214 29 C214.556875 29.185625 215.11375 29.37125 215.6875 29.5625 C218.5596443 31.347887 219.84091491 33.43130551 221.71484375 36.19921875 C223.54211396 38.75961865 225.72372803 40.83754163 228 43 C230.43919256 45.37970005 232.74421621 47.66483503 234.8125 50.375 C236.73595602 52.68314723 238.5850494 54.39624153 240.875 56.3125 C244.35734281 59.27345692 246.87851205 62.39342804 249.51171875 66.10546875 C250.99886161 67.99855087 252.50107389 69.37332107 254.375 70.875 C258.23609298 73.99127017 261.10144201 77.70494046 264.10546875 81.6328125 C265.96333783 84.05398873 265.96333783 84.05398873 268.23828125 86.1796875 C270 88 270 88 270 90 C270.8353125 90.309375 270.8353125 90.309375 271.6875 90.625 C274.97012371 92.57683032 276.70673246 94.94230994 279 98 C279 98.66 279 99.32 279 100 C279.58910156 100.25136719 280.17820312 100.50273437 280.78515625 100.76171875 C283.27644202 102.15455401 284.62300414 103.6208572 286.4375 105.8125 C288.46241802 108.20951834 290.46465406 110.46465406 292.6875 112.6875 C295.00037923 115.00037923 296.95844674 117.44805842 299 120 C300.11375 121.11375 300.11375 121.11375 301.25 122.25 C303.60256338 124.60256338 305.80247047 127.00506046 308 129.5 C310.89852661 132.78463428 313.85877425 135.94367224 317 139 C320.25278476 142.17344855 323.31675291 145.32295769 326 149 C326 149.66 326 150.32 326 151 C326.57105469 151.23460937 327.14210938 151.46921875 327.73046875 151.7109375 C330.5294505 153.30072059 332.1989295 155.1998374 334.3125 157.625 C335.09753906 158.51832031 335.88257813 159.41164063 336.69140625 160.33203125 C337.83416016 161.65267578 337.83416016 161.65267578 339 163 C340.24932345 164.43808803 341.49925482 165.87564832 342.75 167.3125 C343.30816406 167.95445312 343.86632813 168.59640625 344.44140625 169.2578125 C345.80514125 170.78218797 347.24121273 172.24121273 348.6875 173.6875 C351 176 351 176 352.875 178.4375 C354.65198349 180.58033303 356.23966818 182.07988427 358.375 183.8125 C361.7099877 186.57740433 364.09721085 189.63006945 366.61328125 193.13671875 C368.50761923 195.68206866 370.73109601 197.78386122 373 200 C374.61655553 201.71759025 376.21969686 203.44786032 377.8125 205.1875 C378.60269531 206.04730469 379.39289063 206.90710938 380.20703125 207.79296875 C382 210 382 210 382 212 C382.56332031 212.22816406 383.12664062 212.45632813 383.70703125 212.69140625 C386.62731794 214.35800939 388.45735763 216.42720751 390.6875 218.9375 C391.47511719 219.81277344 392.26273438 220.68804688 393.07421875 221.58984375 C395 224 395 224 396 227 C397.32596504 227.68120403 398.66040547 228.34600557 400 229 C401.74609375 230.76953125 401.74609375 230.76953125 403.4375 232.8125 C405.46241802 235.20951834 407.46465406 237.46465406 409.6875 239.6875 C412.00037923 242.00037923 413.95844674 244.44805842 416 247 C417.0828125 248.0828125 417.0828125 248.0828125 418.1875 249.1875 C420.79948138 251.79948138 423.31669587 254.46480458 425.8125 257.1875 C426.60269531 258.04730469 427.39289063 258.90710938 428.20703125 259.79296875 C430 262 430 262 430 264 C430.58910156 264.25136719 431.17820312 264.50273438 431.78515625 264.76171875 C434.27644202 266.15455401 435.62300414 267.6208572 437.4375 269.8125 C439.46241802 272.20951834 441.46465406 274.46465406 443.6875 276.6875 C446.00037923 279.00037923 447.95844674 281.44805842 450 284 C452.37762213 286.4385868 454.80817268 288.81350121 457.25 291.1875 C462.59340159 296.65234254 467.62971049 302.40466485 472.625 308.1875 C475.37097653 311.3447403 478.26933121 314.28856041 481.25 317.22265625 C484.32294207 320.34361304 487.14760879 323.6785489 490 327 C494.59235149 332.32160903 499.26728527 337.41111236 504.375 342.25 C506.5922459 344.57282903 508.45376345 346.87728075 510.375 349.4375 C512.56501079 352.31485184 514.68429423 354.73354625 517.5 357 C521.07768469 359.87979553 523.64023713 363.25021067 526.38671875 366.91015625 C528.38962569 369.50472093 530.65499245 371.71218776 533 374 C534.34165726 375.4925594 535.67422032 376.99331954 537 378.5 C539.13844192 380.92623223 541.27458499 383.27458499 543.5625 385.5625 C545.64688025 387.64688025 547.57210658 389.77359405 549.5 392 C552.21699334 395.13453994 555.0262473 398.10450395 558 401 C561.26518601 404.18554733 564.15337718 407.44172148 567 411 C567.7425 411.7425 568.485 412.485 569.25 413.25 C571.60256338 415.60256338 573.80247047 418.00506046 576 420.5 C578.09901622 422.88044856 580.1926199 425.1926199 582.4375 427.4375 C584.96512866 429.96512866 587.39645424 432.5531822 589.8125 435.1875 C590.60269531 436.04730469 591.39289062 436.90710938 592.20703125 437.79296875 C594 440 594 440 594 442 C594.8353125 442.309375 594.8353125 442.309375 595.6875 442.625 C598.97012371 444.57683032 600.70673246 446.94230994 603 450 C603 450.66 603 451.32 603 452 C603.58910156 452.25136719 604.17820312 452.50273438 604.78515625 452.76171875 C607.27644202 454.15455401 608.62300414 455.6208572 610.4375 457.8125 C612.46241802 460.20951834 614.46465406 462.46465406 616.6875 464.6875 C619.00037923 467.00037923 620.95844674 469.44805842 623 472 C623.7425 472.7425 624.485 473.485 625.25 474.25 C628.33711998 477.33711998 631.19344231 480.58428412 634.078125 483.859375 C635.58427031 485.53695148 637.15583305 487.15583305 638.75 488.75 C641.0401181 491.0401181 642.97833385 493.47291731 645 496 C645.9075 496.886875 646.815 497.77375 647.75 498.6875 C650 501 650 501 650 503 C650.57105469 503.23460937 651.14210938 503.46921875 651.73046875 503.7109375 C654.5294505 505.30072059 656.1989295 507.1998374 658.3125 509.625 C659.48619141 510.96111328 659.48619141 510.96111328 660.68359375 512.32421875 C661.44800781 513.20722656 662.21242188 514.09023438 663 515 C664.29121111 516.47956436 665.58282918 517.95877373 666.875 519.4375 C667.67550781 520.36369141 667.67550781 520.36369141 668.4921875 521.30859375 C669.98351619 523.03080564 669.98351619 523.03080564 671.6953125 524.59765625 C673 526 673 526 673 528 C673.99 528.33 674.98 528.66 676 529 C677.98 531.31 679.96 533.62 682 536 C682 470.66 682 405.32 682 338 C689.60960491 341.04384196 694.12542121 345.96410439 699.3828125 352.12109375 C702.44741075 355.68165355 705.76564162 358.82074294 709.375 361.8125 C712.7074613 364.61840356 715.43697821 367.74715289 718.25 371.0625 C719.90380025 372.89349314 721.59609722 374.43607986 723.5 376 C726.8169684 378.72465261 729.47848806 381.79607522 732.25 385.0625 C733.90380025 386.89349314 735.59609722 388.43607986 737.5 390 C740.72537892 392.66040124 743.34315852 395.61292977 746.05078125 398.7890625 C750.87452488 404.26048313 756.06431152 409.47481267 761.6875 414.125 C764.92443374 416.80854694 767.5350005 419.86267916 770.25 423.0625 C771.90380025 424.89349314 773.59609722 426.43607986 775.5 428 C778.8169684 430.72465261 781.47848806 433.79607522 784.25 437.0625 C785.90380025 438.89349314 787.59609722 440.43607986 789.5 442 C792.8169684 444.72465261 795.47848806 447.79607522 798.25 451.0625 C799.90380025 452.89349314 801.59609722 454.43607986 803.5 456 C806.8169684 458.72465261 809.47848806 461.79607522 812.25 465.0625 C813.90380025 466.89349314 815.59609722 468.43607986 817.5 470 C820.72349996 472.65885141 823.34085762 475.60727838 826.04296875 478.78515625 C829.81863996 483.05822128 833.9404619 486.99920119 838 491 C839.66795716 492.66537518 841.33464722 494.33202048 843 496 C843.7528125 496.7528125 844.505625 497.505625 845.28125 498.28125 C913 566 913 566 914.99302483 568.18768883 C917.36734159 570.56682091 919.94718281 572.41641135 922.71899605 574.31308937 C941.13067241 586.99794023 961.81584007 603.50256767 966.62368011 626.48326874 C970.97663071 650.54743023 969.51035551 675.83142755 968.76274227 700.14779689 C968.42826857 711.33163539 968.36435079 722.51279924 968.312135 733.70092793 C968.21220225 753.64010306 967.90820946 773.57047246 967.47021484 793.50488281 C967.04597941 812.83354541 966.72138783 832.15979056 966.52685547 851.4921875 C966.51477019 852.68983543 966.50268491 853.88748336 966.49023341 855.12142365 C966.43018839 861.13150844 966.37206102 867.14160996 966.31488585 873.15172267 C965.84035467 922.77389114 965.03228701 972.38650993 964 1022 C944.78961961 1022.11678525 925.57931121 1022.20496457 906.36864948 1022.25906086 C897.44885201 1022.28484602 888.52927507 1022.32000237 879.60961914 1022.37719727 C871.83551788 1022.42702285 864.06157633 1022.45928875 856.28731984 1022.47044247 C852.17056109 1022.47696274 848.05425922 1022.49229312 843.93764687 1022.52865028 C840.06257847 1022.56259679 836.188155 1022.57305594 832.31295204 1022.56553841 C830.89112849 1022.56691359 829.4692833 1022.57685492 828.04758835 1022.59602737 C826.10519279 1022.62093619 824.16245092 1022.61193537 822.21992493 1022.60127258 C821.133131 1022.60588155 820.04633707 1022.61049051 818.92660999 1022.61523914 C814.15521257 1021.61218425 811.98917708 1018.2859302 809.125 1014.5625 C807.36773571 1012.443446 805.78730497 1010.91785153 803.6875 1009.1875 C800.28863266 1006.36360165 797.47891924 1003.23276524 794.6171875 999.875 C792.52961665 997.454628 790.28802291 995.23082234 788 993 C783.66869754 988.77331838 779.57969561 984.4291005 775.625 979.84765625 C772.66360244 976.48049028 769.42725899 973.4082697 766.1875 970.3125 C764 968 764 968 764 966 C763.360625 965.731875 762.72125 965.46375 762.0625 965.1875 C760 964 760 964 759 961 C757.67465585 960.31758876 756.34003728 959.65308676 755 959 C753.1484375 957.1953125 753.1484375 957.1953125 751.375 955.125 C750.78460937 954.44695313 750.19421875 953.76890625 749.5859375 953.0703125 C748 951 748 951 747.0390625 948.8671875 C745.71767552 946.49266503 744.42132197 946.14239063 742 945 C740.359375 943.30078125 740.359375 943.30078125 738.75 941.3125 C736.32802519 938.44028628 733.8722813 935.92139994 731 933.5 C727.50009885 930.53489999 724.54320599 927.32468296 721.578125 923.83203125 C720.30300827 922.35175961 718.94400766 920.94400766 717.5625 919.5625 C715.30036132 917.30036132 713.22103862 914.97636406 711.125 912.5625 C708.18574327 909.2206809 705.15602289 906.34676706 701.72265625 903.53125 C699.10117976 901.20104868 696.89588522 898.54907506 694.625 895.8828125 C691.83421923 892.64926363 688.74633507 889.72616385 685.6875 886.75 C682.64487257 883.63661379 679.78442633 880.38979703 676.90625 877.125 C675.48439394 875.53998012 674.00564981 874.00564981 672.5 872.5 C670.25962967 870.25962967 668.2013723 867.95311256 666.125 865.5625 C663.64315724 862.7341358 661.16547422 860.18992533 658.25 857.8125 C655.94260169 855.92510003 654.7525765 854.62487405 653.0625 852.0625 C650.77942391 848.67247793 648.25826541 846.53429273 645.15234375 843.92578125 C642.10473904 841.19897704 639.48951093 838.15514932 636.8125 835.0703125 C634.64781543 832.59772021 632.35484566 830.29120118 630 828 C627.07303063 825.15005614 624.33051952 822.23549236 621.6875 819.125 C619.2817406 816.33828521 616.80836625 813.87923485 614 811.5 C610.50009885 808.53489999 607.54320599 805.32468296 604.578125 801.83203125 C603.30300827 800.35175961 601.94400766 798.94400766 600.5625 797.5625 C598.30036132 795.30036132 596.22103862 792.97636406 594.125 790.5625 C591.18654139 787.22158834 588.15565892 784.34968542 584.7265625 781.53125 C580.68007319 777.94250835 577.27048023 773.66750531 574 769.375 C572.29822069 767.35413707 570.70690175 765.85764824 568.6875 764.1875 C565.31996982 761.38842043 562.53631124 758.2976911 559.7109375 754.9609375 C558.07172664 753.08220725 556.35811264 751.35317179 554.5625 749.625 C552 747 552 747 552 745 C551.41476562 744.74992187 550.82953125 744.49984375 550.2265625 744.2421875 C547.70467294 742.83523859 546.24913938 741.31287196 544.375 739.125 C543.78460937 738.44695313 543.19421875 737.76890625 542.5859375 737.0703125 C541 735 541 735 540.0390625 732.8671875 C538.71937819 730.49572472 537.42262127 730.12626605 535 729 C533.47265625 727.44921875 533.47265625 727.44921875 532.0625 725.6875 C529.52624429 722.60958164 526.85953481 719.78621341 524 717 C522.33333333 715.33333333 520.66666667 713.66666667 519 712 C518.45214844 711.46375 517.90429688 710.9275 517.33984375 710.375 C514.43598803 707.51581898 511.65702112 704.6444468 509.0625 701.5 C506.90345153 698.92177457 504.62701244 696.73740382 502.0625 694.5625 C498.59214224 691.61335567 495.65987099 688.44184215 492.71875 684.97265625 C490.49663006 682.4222686 488.0982449 680.08500057 485.68359375 677.71875 C484.023502 676.02399276 482.51114487 674.26530388 481 672.4375 C479.00536222 670.05663263 476.95899363 668.03733885 474.5625 666.0625 C471.18784054 663.27896714 468.39612388 660.17017478 465.578125 656.83203125 C464.03740136 654.98091136 464.03740136 654.98091136 462.296875 653.38671875 C461 652 461 652 461 650 C460.11634766 649.62294922 460.11634766 649.62294922 459.21484375 649.23828125 C456.72355798 647.84544599 455.37699586 646.3791428 453.5625 644.1875 C451.48094675 641.71565552 449.40344156 639.35288472 447.0625 637.125 C445 635 445 635 445 633 C444.360625 632.731875 443.72125 632.46375 443.0625 632.1875 C441 631 441 631 440 628 C439.11441406 627.55720703 439.11441406 627.55720703 438.2109375 627.10546875 C435.32364183 625.66182092 433.74324626 623.73919265 431.625 621.3125 C430.83480469 620.4153125 430.04460937 619.518125 429.23046875 618.59375 C427.44414651 616.51648561 425.6865358 614.42092671 423.9375 612.3125 C421.24170439 609.12520574 418.1915262 606.52131042 415.015625 603.82421875 C412.29689114 601.36365923 409.96622773 598.64813006 407.6015625 595.8515625 C406.21108209 594.2440315 404.70722001 592.73594845 403.1875 591.25 C401 589 401 589 399.9375 586.8125 C399.15030588 584.84243161 399.15030588 584.84243161 397.1484375 584.12109375 C394.66191301 582.82358006 393.44893638 581.4192152 391.6875 579.25 C389.4336076 576.57800816 387.20539973 574.21295618 384.5 572 C381.14399212 569.24111964 378.3767009 566.14716672 375.578125 562.83203125 C374.03740136 560.98091136 374.03740136 560.98091136 372.296875 559.38671875 C371 558 371 558 371 556 C370.11634766 555.62294922 370.11634766 555.62294922 369.21484375 555.23828125 C366.72355798 553.84544599 365.37699586 552.3791428 363.5625 550.1875 C360.8596326 546.94531335 358.01007526 543.96065612 355 541 C343.68835202 529.83653954 343.68835202 529.83653954 339.27734375 524.4921875 C338.00002021 523.00002361 336.59192099 521.62321164 335.1875 520.25 C333 518 333 518 332 515 C330.67840634 514.31035341 329.34356353 513.64580126 328 513 C326.47265625 511.44921875 326.47265625 511.44921875 325.0625 509.6875 C322.52624429 506.60958164 319.85953481 503.78621341 317 501 C315.33333333 499.33333333 313.66666667 497.66666667 312 496 C311.45214844 495.46375 310.90429688 494.9275 310.33984375 494.375 C307.43598803 491.51581898 304.65702112 488.6444468 302.0625 485.5 C299.90345153 482.92177457 297.62701244 480.73740382 295.0625 478.5625 C290.93051773 475.05826119 287.48117506 471.13704863 284 467 C283.67 466.67 283.34 466.34 283 466 C282.67 516.82 282.34 567.64 282 620 C274.86383838 616.43191919 269.81870942 610.93208074 264.71484375 604.90234375 C263.07467898 603.08284433 261.39012506 601.55335445 259.5 600 C256.27650004 597.34114859 253.65914238 594.39272162 250.95703125 591.21484375 C247.18136004 586.94177872 243.0595381 583.00079881 239 579 C236.5865606 576.59400948 234.17969974 574.18255716 231.7890625 571.75390625 C228.42015642 568.34243277 225.07670071 564.98890194 221.375 561.9375 C218.11904651 559.22920689 215.48468709 556.16052407 212.75 552.9375 C211.09619975 551.10650686 209.40390278 549.56392014 207.5 548 C202.86975425 544.17638077 197.92672342 539.78017026 196 534 C195.4225 533.71125 194.845 533.4225 194.25 533.125 C191.20774755 531.60387378 189.26157493 529.51286104 187 527 C187 526.34 187 525.68 187 525 C186.360625 524.731875 185.72125 524.46375 185.0625 524.1875 C183 523 183 523 182 520 C181.4225 519.71125 180.845 519.4225 180.25 519.125 C177.20774755 517.60387378 175.26157493 515.51286104 173 513 C173 512.34 173 511.68 173 511 C172.360625 510.731875 171.72125 510.46375 171.0625 510.1875 C169 509 169 509 168 506 C167.34 505.67 166.68 505.34 166 505 C164 504 164 504 163 501 C162.13375 500.566875 162.13375 500.566875 161.25 500.125 C158.20774755 498.60387378 156.26157493 496.51286104 154 494 C154 493.34 154 492.68 154 492 C153.360625 491.731875 152.72125 491.46375 152.0625 491.1875 C150 490 150 490 149 487 C148.34 486.67 147.68 486.34 147 486 C145 485 145 485 144 482 C141.99983534 480.79117904 141.99983534 480.79117904 140 480 C140 479.34 140 478.68 140 478 C139.360625 477.731875 138.72125 477.46375 138.0625 477.1875 C136 476 136 476 135 473 C134.34 472.67 133.68 472.34 133 472 C131 471 131 471 130 468 C127.99983534 466.79117904 127.99983534 466.79117904 126 466 C126 465.34 126 464.68 126 464 C125.360625 463.731875 124.72125 463.46375 124.0625 463.1875 C122 462 122 462 121 459 C120.34 458.67 119.68 458.34 119 458 C117 457 117 457 116 454 C115.4225 453.71125 114.845 453.4225 114.25 453.125 C111.20774755 451.60387378 109.26157493 449.51286104 107 447 C107 446.34 107 445.68 107 445 C106.360625 444.731875 105.72125 444.46375 105.0625 444.1875 C103 443 103 443 102 440 C101.34 439.67 100.68 439.34 100 439 C98 438 98 438 97 435 C96.4225 434.71125 95.845 434.4225 95.25 434.125 C92.20774755 432.60387378 90.26157493 430.51286104 88 428 C88 427.34 88 426.68 88 426 C87.360625 425.731875 86.72125 425.46375 86.0625 425.1875 C84 424 84 424 83 421 C82.4225 420.71125 81.845 420.4225 81.25 420.125 C78.20774755 418.60387378 76.26157493 416.51286104 74 414 C74 413.34 74 412.68 74 412 C73.360625 411.731875 72.72125 411.46375 72.0625 411.1875 C70 410 70 410 69 407 C68.4225 406.71125 67.845 406.4225 67.25 406.125 C64.20774755 404.60387378 62.26157493 402.51286104 60 400 C60 399.34 60 398.68 60 398 C59.360625 397.731875 58.72125 397.46375 58.0625 397.1875 C56 396 56 396 55 393 C54.34 392.67 53.68 392.34 53 392 C51 391 51 391 50 388 C49.4225 387.71125 48.845 387.4225 48.25 387.125 C45.20774755 385.60387378 43.26157493 383.51286104 41 381 C41 380.34 41 379.68 41 379 C40.360625 378.731875 39.72125 378.46375 39.0625 378.1875 C37 377 37 377 36 374 C35.4225 373.71125 34.845 373.4225 34.25 373.125 C31.20774755 371.60387378 29.26157493 369.51286104 27 367 C27 366.34 27 365.68 27 365 C26.360625 364.731875 25.72125 364.46375 25.0625 364.1875 C23 363 23 363 22 360 C20.67673888 359.31355829 19.34209653 358.64884446 18 358 C16.4375 356.37890625 16.4375 356.37890625 15 354.5625 C12.8546863 351.93802994 10.74288609 350.00441676 8 348 C8 347.34 8 346.68 8 346 C7.4225 345.7525 6.845 345.505 6.25 345.25 C3.58375397 343.76875221 1.94955813 342.35632524 0 340 C-0.49679399 337.32311606 -0.49679399 337.32311606 -0.49219131 334.19790268 C-0.50015551 333.00558399 -0.5081197 331.8132653 -0.51632524 330.58481574 C-0.50467387 329.27354469 -0.4930225 327.96227363 -0.48101807 326.61126709 C-0.48276198 325.20537959 -0.48626357 323.79949335 -0.49137473 322.39361405 C-0.50033415 318.52595039 -0.48429818 314.65872838 -0.46426249 310.79112101 C-0.4470156 306.62209988 -0.45283222 302.45310438 -0.45587158 298.28405762 C-0.4579707 291.05946688 -0.44540286 283.83502044 -0.42292023 276.610466 C-0.39043517 266.16495115 -0.37999679 255.71950621 -0.37496826 245.27394632 C-0.36621012 228.32744807 -0.33958045 211.38102677 -0.30175781 194.43457031 C-0.26505116 177.97103257 -0.23673281 161.50751571 -0.21972656 145.04394531 C-0.21867567 144.02941771 -0.21762477 143.01489011 -0.21654204 141.96961924 C-0.21132195 136.88011769 -0.2062671 131.79061598 -0.20129442 126.70111418 C-0.15981622 84.46735615 -0.08935365 42.23368204 0 0 Z " fill="#25B3B5" transform="translate(1091,411)"/>
<path d="M0 0 C0 0.66 0 1.32 0 2 C1.11181641 2.02126953 1.11181641 2.02126953 2.24609375 2.04296875 C15.47011428 2.6418534 27.61516954 6.67464286 39.6796875 11.984375 C42.08234077 13.07784228 42.08234077 13.07784228 45 14 C45 14.66 45 15.32 45 16 C47.97 16.99 50.94 17.98 54 19 C54 19.66 54 20.32 54 21 C54.845625 21.226875 55.69125 21.45375 56.5625 21.6875 C60.50386856 23.19238618 63.88761859 25.12703255 67 28 C67 28.66 67 29.32 67 30 C67.66 30.185625 68.32 30.37125 69 30.5625 C75.28147587 33.57237385 80.18661437 39.05652286 85 44 C85.76441406 44.74894531 86.52882813 45.49789063 87.31640625 46.26953125 C90.09500087 49.09666028 92.70177744 52.02980998 95.25 55.0625 C95.69601562 55.57876953 96.14203125 56.09503906 96.6015625 56.62695312 C98.86221928 59.3157646 100.55801997 61.45566016 101 65 C101.66 65 102.32 65 103 65 C104.47265625 67.08203125 104.47265625 67.08203125 106.0625 69.8125 C106.58972656 70.70582031 107.11695313 71.59914063 107.66015625 72.51953125 C109 75 109 75 110 78 C110.66 78.33 111.32 78.66 112 79 C112.96484375 81.00390625 112.96484375 81.00390625 113.9375 83.5625 C114.28167969 84.46226563 114.62585937 85.36203125 114.98046875 86.2890625 C115.31691406 87.18367188 115.65335938 88.07828125 116 89 C116.30550781 89.77085938 116.61101562 90.54171875 116.92578125 91.3359375 C118.11261141 94.36207317 119 96.72013229 119 100 C119.66 100 120.32 100 121 100 C121.26554687 101.134375 121.53109375 102.26875 121.8046875 103.4375 C122.16142786 104.95834048 122.51820042 106.47917341 122.875 108 C123.04902344 108.74378906 123.22304687 109.48757813 123.40234375 110.25390625 C123.57636719 110.99511719 123.75039062 111.73632812 123.9296875 112.5 C124.1059668 113.25410156 124.28224609 114.00820312 124.46386719 114.78515625 C124.80479118 116.19356358 125.16295585 117.59799239 125.54394531 118.99609375 C128.22115102 128.87046284 128.19415401 138.8891914 128.1875 149.0625 C128.1862915 150.97881226 128.1862915 150.97881226 128.18505859 152.93383789 C128.11012911 164.53394982 127.83577026 175.95179687 124 187 C123.54722267 188.89224284 123.10984712 190.78823351 122.6875 192.6875 C121.41399203 197.89087348 119.58832757 202.48941351 117.2734375 207.30859375 C115.31071376 211.45680435 113.66041708 215.72373031 112 220 C111.34 220 110.68 220 110 220 C109.896875 220.556875 109.79375 221.11375 109.6875 221.6875 C108.86127827 224.46660946 107.52329746 226.53182699 106 229 C105.49082031 229.85078125 104.98164062 230.7015625 104.45703125 231.578125 C100.50366826 238.00116605 96.12035512 243.48421152 91 249 C89.80924387 250.39305663 88.6216248 251.78880225 87.4375 253.1875 C84.70427733 256.32726609 81.80218467 259.04681671 78.578125 261.67578125 C76.97771867 262.97664666 76.97771867 262.97664666 75.55078125 264.46875 C73.78509627 266.21219714 71.91556801 267.69008403 69.9375 269.1875 C69.24527344 269.71730469 68.55304688 270.24710938 67.83984375 270.79296875 C66 272 66 272 64 272 C64 272.66 64 273.32 64 274 C62.5459375 274.680625 62.5459375 274.680625 61.0625 275.375 C57.92920418 276.65786221 57.92920418 276.65786221 57 279 C54.53610005 280.28576597 52.08919912 281.47713669 49.5625 282.625 C48.86833984 282.94984375 48.17417969 283.2746875 47.45898438 283.609375 C42.27092634 286 42.27092634 286 40 286 C40 286.66 40 287.32 40 288 C38.39743892 288.50512244 36.79288208 289.00391627 35.1875 289.5 C34.29417969 289.7784375 33.40085937 290.056875 32.48046875 290.34375 C30 291 30 291 27 291 C27 291.66 27 292.32 27 293 C25.06833984 293.41572266 25.06833984 293.41572266 23.09765625 293.83984375 C21.41922846 294.20553472 19.74084532 294.57143072 18.0625 294.9375 C17.21236328 295.11990234 16.36222656 295.30230469 15.48632812 295.49023438 C14.67744141 295.66748047 13.86855469 295.84472656 13.03515625 296.02734375 C11.91185913 296.27085571 11.91185913 296.27085571 10.76586914 296.51928711 C8.98825697 296.84622796 8.98825697 296.84622796 8 298 C-12.66159386 301.46467363 -37.96401078 303.03391111 -58 296 C-60.28541881 295.43254977 -62.5773718 294.89079409 -64.875 294.375 C-66.60363281 293.98441406 -66.60363281 293.98441406 -68.3671875 293.5859375 C-69.23601562 293.39257812 -70.10484375 293.19921875 -71 293 C-71 292.34 -71 291.68 -71 291 C-71.68707031 290.86722656 -72.37414063 290.73445313 -73.08203125 290.59765625 C-73.98308594 290.42105469 -74.88414063 290.24445313 -75.8125 290.0625 C-76.70582031 289.88847656 -77.59914063 289.71445313 -78.51953125 289.53515625 C-81 289 -81 289 -84 288 C-84 287.34 -84 286.68 -84 286 C-85.423125 285.690625 -85.423125 285.690625 -86.875 285.375 C-92.1036434 283.89319823 -96.43259364 280.8601011 -101 278 C-103.32172623 276.64497117 -105.65968015 275.32278948 -108 274 C-108 273.34 -108 272.68 -108 272 C-108.66 271.814375 -109.32 271.62875 -110 271.4375 C-113.60675485 269.7092633 -116.12166032 267.42515414 -119.0625 264.74609375 C-120.64513233 263.31981017 -122.31262605 261.98818409 -124 260.6875 C-124.99 259.8521875 -124.99 259.8521875 -126 259 C-126 258.34 -126 257.68 -126 257 C-126.58910156 256.74734375 -127.17820312 256.4946875 -127.78515625 256.234375 C-130.25966493 254.85528374 -131.62190075 253.41362405 -133.4375 251.25 C-134.035625 250.54101562 -134.63375 249.83203125 -135.25 249.1015625 C-136.11625 248.06128906 -136.11625 248.06128906 -137 247 C-137.515625 246.40960937 -138.03125 245.81921875 -138.5625 245.2109375 C-142 241.24609375 -142 241.24609375 -142 239 C-142.66 239 -143.32 239 -144 239 C-144.45375 238.030625 -144.9075 237.06125 -145.375 236.0625 C-146.65786221 232.92920418 -146.65786221 232.92920418 -149 232 C-150.57548683 229.37418862 -151 228.12900213 -151 225 C-151.66 225 -152.32 225 -153 225 C-154.485 220.545 -154.485 220.545 -156 216 C-156.66 216 -157.32 216 -158 216 C-163.57185139 202.57183815 -168.01050791 189.64160409 -170.04956055 175.18261719 C-170.2630574 171.2682105 -170.2630574 171.2682105 -172 168 C-172.11361897 165.45054302 -172.16418925 162.92928511 -172.16796875 160.37890625 C-172.17296135 159.21801735 -172.17296135 159.21801735 -172.17805481 158.03367615 C-172.18313206 156.38679601 -172.18546289 154.73990553 -172.18530273 153.09301758 C-172.18746384 150.6041488 -172.20553915 148.11574185 -172.22460938 145.62695312 C-172.25389692 137.49894339 -172.05275842 129.91381428 -170 122 C-169.70745813 120.58249439 -169.42332197 119.16322283 -169.1484375 117.7421875 C-168.43229167 114.16145833 -167.71614583 110.58072917 -167 107 C-166.34 107 -165.68 107 -165 107 C-164.89429688 105.83855469 -164.78859375 104.67710938 -164.6796875 103.48046875 C-164.12995951 99.10096907 -162.83431321 95.36065398 -161.125 91.3125 C-160.86847656 90.67505859 -160.61195312 90.03761719 -160.34765625 89.38085938 C-158.84043444 85.71126658 -157.09108752 82.36469607 -155 79 C-154.30177383 77.34630643 -153.62501395 75.68272986 -153 74 C-152.34 74 -151.68 74 -151 74 C-150.34 72.02 -149.68 70.04 -149 68 C-148.34 68 -147.68 68 -147 68 C-146.76925781 67.3090625 -146.53851562 66.618125 -146.30078125 65.90625 C-144.72223386 62.37940539 -142.56175496 59.51414989 -140.1875 56.5 C-139.76146484 55.94441406 -139.33542969 55.38882812 -138.89648438 54.81640625 C-136.15187187 51.28702556 -133.22080683 48.11272606 -130 45 C-129.195625 44.175 -128.39125 43.35 -127.5625 42.5 C-125.70262326 40.68548611 -123.87197176 39.02188535 -121.875 37.375 C-119.17800529 35.23924131 -119.17800529 35.23924131 -117.63671875 33.58203125 C-115.55785991 31.57263309 -113.30253217 29.97394381 -110.9375 28.3125 C-110.05964844 27.68988281 -109.18179687 27.06726562 -108.27734375 26.42578125 C-106 25 -106 25 -104 25 C-104 24.34 -104 23.68 -104 23 C-102.02 22.34 -100.04 21.68 -98 21 C-98 20.34 -98 19.68 -98 19 C-95.03 18.01 -92.06 17.02 -89 16 C-89 15.34 -89 14.68 -89 14 C-87.56445975 13.49440092 -86.1264798 12.9957251 -84.6875 12.5 C-83.88699219 12.2215625 -83.08648438 11.943125 -82.26171875 11.65625 C-80 11 -80 11 -77 11 C-77 10.34 -77 9.68 -77 9 C-76.05898437 8.73445313 -75.11796875 8.46890625 -74.1484375 8.1953125 C-72.90320312 7.84210938 -71.65796875 7.48890625 -70.375 7.125 C-69.14523437 6.77695313 -67.91546875 6.42890625 -66.6484375 6.0703125 C-64.40258523 5.41146505 -62.17031616 4.70062954 -59.96875 3.90625 C-56.6379058 2.88946598 -53.59707572 2.58757606 -50.125 2.375 C-48.97257812 2.30023437 -47.82015625 2.22546875 -46.6328125 2.1484375 C-45.32957031 2.07496094 -45.32957031 2.07496094 -44 2 C-44 1.34 -44 0.68 -44 0 C-29.31554393 -1.45287905 -14.68445607 -1.45287905 0 0 Z " fill="#A97D34" transform="translate(1246,1133)"/>
<path d="M0 0 C1.20462891 -0.02126953 1.20462891 -0.02126953 2.43359375 -0.04296875 C4.5625 0.1875 4.5625 0.1875 6.5625 2.1875 C4.50789254 4.24210746 0.52040217 4.05572345 -2.3125 4.5 C-8.62440094 5.53652938 -14.39781823 6.96366868 -20.3359375 9.41796875 C-22.4375 10.1875 -22.4375 10.1875 -25.4375 10.1875 C-25.1075 8.8675 -24.7775 7.5475 -24.4375 6.1875 C-23.1175 6.1875 -21.7975 6.1875 -20.4375 6.1875 C-20.4375 5.5275 -20.4375 4.8675 -20.4375 4.1875 C-19.36628906 3.98253906 -18.29507813 3.77757812 -17.19140625 3.56640625 C-15.79423149 3.29447291 -14.39709819 3.02232648 -13 2.75 C-12.29294922 2.61529297 -11.58589844 2.48058594 -10.85742188 2.34179688 C-6.8172102 1.54921947 -4.06764851 0.03254119 0 0 Z " fill="#14477A" transform="translate(989.4375,1578.8125)"/>
<path d="M0 0 C1.258125 -0.04125 2.51625 -0.0825 3.8125 -0.125 C4.52019531 -0.14820313 5.22789062 -0.17140625 5.95703125 -0.1953125 C8 0 8 0 11 2 C7.52674819 3.1577506 4.63932552 3.06866652 1 3 C0.67 2.01 0.34 1.02 0 0 Z " fill="#14477A" transform="translate(997,1578)"/>
</svg>
